<svg width="22" height="23" viewBox="0 0 22 23" fill="none" xmlns="http://www.w3.org/2000/svg">
<path d="M3.4375 7.2644V18.2644C3.43886 18.7198 3.62038 19.1562 3.94241 19.4782C4.26445 19.8003 4.70083 19.9818 5.15625 19.9832H16.8438C17.2992 19.9818 17.7356 19.8003 18.0576 19.4782C18.3796 19.1562 18.5611 18.7198 18.5625 18.2644V7.2644" stroke="#97989C" stroke-width="1.875" stroke-linecap="round" stroke-linejoin="round"/>
<path d="M18.7344 3.48315H3.26562C2.60116 3.48315 2.0625 4.02181 2.0625 4.68628V5.71753C2.0625 6.382 2.60116 6.92065 3.26562 6.92065H18.7344C19.3988 6.92065 19.9375 6.382 19.9375 5.71753V4.68628C19.9375 4.02181 19.3988 3.48315 18.7344 3.48315Z" stroke="#97989C" stroke-width="1.875" stroke-linejoin="round"/>
<path d="M13.75 13.7957L11 16.5457L8.25 13.7957M11 15.5956V10.3582" stroke="#97989C" stroke-width="1.875" stroke-linecap="round" stroke-linejoin="round"/>
</svg>
