<svg width="26" height="26" viewBox="0 0 26 26" fill="none" xmlns="http://www.w3.org/2000/svg">
<path d="M21.2356 3.625H18.8918V2.84375C18.8918 2.63655 18.8095 2.43784 18.663 2.29132C18.5165 2.14481 18.3178 2.0625 18.1106 2.0625C17.9034 2.0625 17.7047 2.14481 17.5582 2.29132C17.4117 2.43784 17.3293 2.63655 17.3293 2.84375V3.625H9.51685V2.84375C9.51685 2.63655 9.43454 2.43784 9.28802 2.29132C9.14151 2.14481 8.9428 2.0625 8.7356 2.0625C8.5284 2.0625 8.32968 2.14481 8.18317 2.29132C8.03666 2.43784 7.95435 2.63655 7.95435 2.84375V3.625H5.6106C5.19619 3.625 4.79877 3.78962 4.50574 4.08265C4.21272 4.37567 4.0481 4.7731 4.0481 5.1875V20.8125C4.0481 21.2269 4.21272 21.6243 4.50574 21.9174C4.79877 22.2104 5.19619 22.375 5.6106 22.375H21.2356C21.65 22.375 22.0474 22.2104 22.3405 21.9174C22.6335 21.6243 22.7981 21.2269 22.7981 20.8125V5.1875C22.7981 4.7731 22.6335 4.37567 22.3405 4.08265C22.0474 3.78962 21.65 3.625 21.2356 3.625ZM7.95435 5.1875V5.96875C7.95435 6.17595 8.03666 6.37466 8.18317 6.52118C8.32968 6.66769 8.5284 6.75 8.7356 6.75C8.9428 6.75 9.14151 6.66769 9.28802 6.52118C9.43454 6.37466 9.51685 6.17595 9.51685 5.96875V5.1875H17.3293V5.96875C17.3293 6.17595 17.4117 6.37466 17.5582 6.52118C17.7047 6.66769 17.9034 6.75 18.1106 6.75C18.3178 6.75 18.5165 6.66769 18.663 6.52118C18.8095 6.37466 18.8918 6.17595 18.8918 5.96875V5.1875H21.2356V8.3125H5.6106V5.1875H7.95435ZM21.2356 20.8125H5.6106V9.875H21.2356V20.8125ZM16.5481 15.3438C16.5481 15.551 16.4658 15.7497 16.3193 15.8962C16.1728 16.0427 15.974 16.125 15.7668 16.125H14.2043V17.6875C14.2043 17.8947 14.122 18.0934 13.9755 18.2399C13.829 18.3864 13.6303 18.4688 13.4231 18.4688C13.2159 18.4688 13.0172 18.3864 12.8707 18.2399C12.7242 18.0934 12.6418 17.8947 12.6418 17.6875V16.125H11.0793C10.8721 16.125 10.6734 16.0427 10.5269 15.8962C10.3804 15.7497 10.2981 15.551 10.2981 15.3438C10.2981 15.1365 10.3804 14.9378 10.5269 14.7913C10.6734 14.6448 10.8721 14.5625 11.0793 14.5625H12.6418V13C12.6418 12.7928 12.7242 12.5941 12.8707 12.4476C13.0172 12.3011 13.2159 12.2188 13.4231 12.2188C13.6303 12.2188 13.829 12.3011 13.9755 12.4476C14.122 12.5941 14.2043 12.7928 14.2043 13V14.5625H15.7668C15.974 14.5625 16.1728 14.6448 16.3193 14.7913C16.4658 14.9378 16.5481 15.1365 16.5481 15.3438Z" fill="#797A7D"/>
</svg>
