<svg width="31" height="30" viewBox="0 0 31 30" fill="none" xmlns="http://www.w3.org/2000/svg">
<path fill-rule="evenodd" clip-rule="evenodd" d="M23.8612 8.06405C23.9695 7.95728 24.0554 7.83051 24.114 7.69096C24.1726 7.55142 24.2029 7.40183 24.2029 7.25075C24.203 7.09967 24.173 6.95005 24.1145 6.81044C24.0561 6.67082 23.9704 6.54394 23.8622 6.43705C23.7541 6.33015 23.6258 6.24533 23.4845 6.18743C23.3432 6.12953 23.1917 6.09968 23.0387 6.09958C22.8857 6.09949 22.7342 6.12916 22.5928 6.18689C22.4514 6.24462 22.323 6.32928 22.2147 6.43605L15.1892 13.374L8.16574 6.43605C7.94713 6.22016 7.65063 6.09888 7.34147 6.09888C7.03231 6.09888 6.73581 6.22016 6.5172 6.43605C6.29859 6.65193 6.17578 6.94474 6.17578 7.25005C6.17578 7.55536 6.29859 7.84816 6.5172 8.06405L13.5427 15L6.5172 21.936C6.40896 22.0429 6.3231 22.1698 6.26451 22.3095C6.20593 22.4492 6.17578 22.5989 6.17578 22.75C6.17578 22.9012 6.20593 23.0509 6.26451 23.1906C6.3231 23.3302 6.40896 23.4571 6.5172 23.564C6.73581 23.7799 7.03231 23.9012 7.34147 23.9012C7.49455 23.9012 7.64613 23.8714 7.78756 23.8136C7.92899 23.7557 8.05749 23.6709 8.16574 23.564L15.1892 16.626L22.2147 23.564C22.4333 23.7797 22.7297 23.9007 23.0387 23.9005C23.3477 23.9003 23.6439 23.7789 23.8622 23.563C24.0806 23.3472 24.2031 23.0545 24.2029 22.7493C24.2028 22.4442 24.0798 22.1517 23.8612 21.936L16.8357 15L23.8612 8.06405Z" fill="#E50024"/>
</svg>
