<svg width="22" height="22" viewBox="0 0 22 22" fill="none" xmlns="http://www.w3.org/2000/svg">
<path d="M5.4335 19.2232L3.3635 21.2932C3.0785 21.5782 2.7521 21.6421 2.3843 21.4849C2.0165 21.3277 1.8329 21.0463 1.8335 20.6407V6.62324C1.8335 6.12824 2.0099 5.70434 2.3627 5.35154C2.7155 4.99874 3.1391 4.82264 3.6335 4.82324H18.0335C18.5285 4.82324 18.9524 4.99964 19.3052 5.35244C19.658 5.70524 19.8341 6.12884 19.8335 6.62324V17.4232C19.8335 17.9182 19.6571 18.3421 19.3043 18.6949C18.9515 19.0477 18.5279 19.2238 18.0335 19.2232H5.4335ZM3.6335 17.4232H18.0335V6.62324H3.6335V17.4232ZM10.8335 13.2832L12.5435 14.9932C12.7085 15.1582 12.9185 15.2407 13.1735 15.2407C13.4285 15.2407 13.6385 15.1582 13.8035 14.9932C13.9685 14.8282 14.051 14.6182 14.051 14.3632C14.051 14.1082 13.9685 13.8982 13.8035 13.7332L12.0935 12.0232L13.8035 10.3132C13.9685 10.1482 14.051 9.93824 14.051 9.68324C14.051 9.42824 13.9685 9.21824 13.8035 9.05324C13.6385 8.88824 13.4285 8.80574 13.1735 8.80574C12.9185 8.80574 12.7085 8.88824 12.5435 9.05324L10.8335 10.7632L9.1235 9.05324C8.9585 8.88824 8.7485 8.80574 8.4935 8.80574C8.2385 8.80574 8.0285 8.88824 7.8635 9.05324C7.6985 9.21824 7.616 9.42824 7.616 9.68324C7.616 9.93824 7.6985 10.1482 7.8635 10.3132L9.5735 12.0232L7.8635 13.7332C7.6985 13.8982 7.616 14.1082 7.616 14.3632C7.616 14.6182 7.6985 14.8282 7.8635 14.9932C8.0285 15.1582 8.2385 15.2407 8.4935 15.2407C8.7485 15.2407 8.9585 15.1582 9.1235 14.9932L10.8335 13.2832Z" fill="#FF0028"/>
</svg>
