<svg width="22" height="23" viewBox="0 0 22 23" fill="none" xmlns="http://www.w3.org/2000/svg">
<path d="M5.4335 19.4L3.3635 21.47C3.0785 21.755 2.7521 21.8189 2.3843 21.6617C2.0165 21.5045 1.8329 21.2231 1.8335 20.8175V6.8C1.8335 6.305 2.0099 5.8811 2.3627 5.5283C2.7155 5.1755 3.1391 4.9994 3.6335 5H18.0335C18.5285 5 18.9524 5.1764 19.3052 5.5292C19.658 5.882 19.8341 6.3056 19.8335 6.8V17.6C19.8335 18.095 19.6571 18.5189 19.3043 18.8717C18.9515 19.2245 18.5279 19.4006 18.0335 19.4H5.4335ZM3.6335 17.6H18.0335V6.8H3.6335V17.6ZM10.8335 13.46L12.5435 15.17C12.7085 15.335 12.9185 15.4175 13.1735 15.4175C13.4285 15.4175 13.6385 15.335 13.8035 15.17C13.9685 15.005 14.051 14.795 14.051 14.54C14.051 14.285 13.9685 14.075 13.8035 13.91L12.0935 12.2L13.8035 10.49C13.9685 10.325 14.051 10.115 14.051 9.86C14.051 9.605 13.9685 9.395 13.8035 9.23C13.6385 9.065 13.4285 8.9825 13.1735 8.9825C12.9185 8.9825 12.7085 9.065 12.5435 9.23L10.8335 10.94L9.1235 9.23C8.9585 9.065 8.7485 8.9825 8.4935 8.9825C8.2385 8.9825 8.0285 9.065 7.8635 9.23C7.6985 9.395 7.616 9.605 7.616 9.86C7.616 10.115 7.6985 10.325 7.8635 10.49L9.5735 12.2L7.8635 13.91C7.6985 14.075 7.616 14.285 7.616 14.54C7.616 14.795 7.6985 15.005 7.8635 15.17C8.0285 15.335 8.2385 15.4175 8.4935 15.4175C8.7485 15.4175 8.9585 15.335 9.1235 15.17L10.8335 13.46Z" fill="#97989C"/>
</svg>
