<svg width="22" height="23" viewBox="0 0 22 23" fill="none" xmlns="http://www.w3.org/2000/svg">
<path d="M11 16.5649C11.2598 16.5649 11.4776 16.4769 11.6536 16.3009C11.8296 16.1249 11.9173 15.9074 11.9167 15.6483V11.9816C11.9167 11.7219 11.8287 11.504 11.6527 11.328C11.4767 11.152 11.2592 11.0643 11 11.0649C10.7403 11.0649 10.5225 11.1529 10.3465 11.3289C10.1705 11.5049 10.0828 11.7225 10.0834 11.9816V15.6483C10.0834 15.908 10.1714 16.1259 10.3474 16.3019C10.5234 16.4779 10.7409 16.5656 11 16.5649ZM11 9.23161C11.2598 9.23161 11.4776 9.14361 11.6536 8.96761C11.8296 8.79161 11.9173 8.57405 11.9167 8.31494C11.9167 8.05522 11.8287 7.83736 11.6527 7.66136C11.4767 7.48536 11.2592 7.39766 11 7.39827C10.7403 7.39827 10.5225 7.48627 10.3465 7.66227C10.1705 7.83827 10.0828 8.05583 10.0834 8.31494C10.0834 8.57466 10.1714 8.79252 10.3474 8.96852C10.5234 9.14452 10.7409 9.23222 11 9.23161ZM11 21.1483C9.73198 21.1483 8.54032 20.9075 7.42504 20.4259C6.30976 19.9444 5.33962 19.2914 4.51462 18.467C3.68962 17.642 3.03665 16.6719 2.55571 15.5566C2.07476 14.4413 1.83399 13.2497 1.83337 11.9816C1.83337 10.7136 2.07415 9.52189 2.55571 8.40661C3.03726 7.29133 3.69024 6.32119 4.51462 5.49619C5.33962 4.67119 6.30976 4.01822 7.42504 3.53727C8.54032 3.05633 9.73198 2.81555 11 2.81494C12.2681 2.81494 13.4598 3.05572 14.575 3.53727C15.6903 4.01883 16.6605 4.6718 17.4855 5.49619C18.3105 6.32119 18.9637 7.29133 19.4453 8.40661C19.9268 9.52189 20.1673 10.7136 20.1667 11.9816C20.1667 13.2497 19.9259 14.4413 19.4444 15.5566C18.9628 16.6719 18.3098 17.642 17.4855 18.467C16.6605 19.292 15.6903 19.9453 14.575 20.4269C13.4598 20.9084 12.2681 21.1489 11 21.1483ZM11 19.3149C13.0473 19.3149 14.7813 18.6045 16.2021 17.1837C17.623 15.7629 18.3334 14.0288 18.3334 11.9816C18.3334 9.93439 17.623 8.20036 16.2021 6.77952C14.7813 5.35869 13.0473 4.64827 11 4.64827C8.95282 4.64827 7.21879 5.35869 5.79796 6.77952C4.37712 8.20036 3.66671 9.93439 3.66671 11.9816C3.66671 14.0288 4.37712 15.7629 5.79796 17.1837C7.21879 18.6045 8.95282 19.3149 11 19.3149Z" fill="#FF0028"/>
</svg>
