<svg width="22" height="23" viewBox="0 0 22 23" fill="none" xmlns="http://www.w3.org/2000/svg">
<path d="M11 16.5653C11.2598 16.5653 11.4776 16.4773 11.6536 16.3013C11.8296 16.1253 11.9173 15.9078 11.9167 15.6486V11.982C11.9167 11.7223 11.8287 11.5044 11.6527 11.3284C11.4767 11.1524 11.2592 11.0647 11 11.0653C10.7403 11.0653 10.5225 11.1533 10.3465 11.3293C10.1705 11.5053 10.0828 11.7229 10.0834 11.982V15.6486C10.0834 15.9084 10.1714 16.1262 10.3474 16.3022C10.5234 16.4782 10.7409 16.5659 11 16.5653ZM11 9.23197C11.2598 9.23197 11.4776 9.14397 11.6536 8.96797C11.8296 8.79197 11.9173 8.57442 11.9167 8.31531C11.9167 8.05559 11.8287 7.83772 11.6527 7.66172C11.4767 7.48572 11.2592 7.39803 11 7.39864C10.7403 7.39864 10.5225 7.48664 10.3465 7.66264C10.1705 7.83864 10.0828 8.0562 10.0834 8.31531C10.0834 8.57503 10.1714 8.79289 10.3474 8.96889C10.5234 9.14489 10.7409 9.23258 11 9.23197ZM11 21.1486C9.73198 21.1486 8.54032 20.9079 7.42504 20.4263C6.30976 19.9448 5.33962 19.2918 4.51462 18.4674C3.68962 17.6424 3.03665 16.6723 2.55571 15.557C2.07476 14.4417 1.83399 13.25 1.83337 11.982C1.83337 10.7139 2.07415 9.52225 2.55571 8.40697C3.03726 7.2917 3.69024 6.32156 4.51462 5.49656C5.33962 4.67156 6.30976 4.01859 7.42504 3.53764C8.54032 3.0567 9.73198 2.81592 11 2.81531C12.2681 2.81531 13.4598 3.05609 14.575 3.53764C15.6903 4.0192 16.6605 4.67217 17.4855 5.49656C18.3105 6.32156 18.9637 7.2917 19.4453 8.40697C19.9268 9.52225 20.1673 10.7139 20.1667 11.982C20.1667 13.25 19.9259 14.4417 19.4444 15.557C18.9628 16.6723 18.3098 17.6424 17.4855 18.4674C16.6605 19.2924 15.6903 19.9457 14.575 20.4272C13.4598 20.9088 12.2681 21.1493 11 21.1486ZM11 19.3153C13.0473 19.3153 14.7813 18.6049 16.2021 17.1841C17.623 15.7632 18.3334 14.0292 18.3334 11.982C18.3334 9.93475 17.623 8.20072 16.2021 6.77989C14.7813 5.35906 13.0473 4.64864 11 4.64864C8.95282 4.64864 7.21879 5.35906 5.79796 6.77989C4.37712 8.20072 3.66671 9.93475 3.66671 11.982C3.66671 14.0292 4.37712 15.7632 5.79796 17.1841C7.21879 18.6049 8.95282 19.3153 11 19.3153Z" fill="#97989C"/>
</svg>
