<svg width="161" height="36" viewBox="0 0 161 36" fill="none" xmlns="http://www.w3.org/2000/svg">
<path d="M9.54545 29H2.15199V7.18182H9.6946C11.8608 7.18182 13.7216 7.61861 15.277 8.49219C16.8395 9.35866 18.0398 10.6051 18.8778 12.2315C19.7159 13.858 20.1349 15.804 20.1349 18.0696C20.1349 20.3423 19.7124 22.2955 18.8672 23.929C18.0291 25.5625 16.8182 26.8161 15.2344 27.6896C13.6577 28.5632 11.7614 29 9.54545 29ZM6.1044 25.5803H9.35369C10.8736 25.5803 12.1413 25.3033 13.157 24.7493C14.1726 24.1882 14.9361 23.3537 15.4474 22.2457C15.9588 21.1307 16.2145 19.7386 16.2145 18.0696C16.2145 16.4006 15.9588 15.0156 15.4474 13.9148C14.9361 12.8068 14.1797 11.9794 13.1783 11.4325C12.1839 10.8786 10.9482 10.6016 9.47088 10.6016H6.1044V25.5803ZM56.2163 29H51.9976L59.6787 7.18182H64.558L72.2497 29H68.031L62.2036 11.6562H62.0331L56.2163 29ZM56.3548 20.4453H67.8605V23.62H56.3548V20.4453ZM84.3169 29H76.9235V7.18182H84.4661C86.6323 7.18182 88.4931 7.61861 90.0485 8.49219C91.611 9.35866 92.8113 10.6051 93.6493 12.2315C94.4874 13.858 94.9064 15.804 94.9064 18.0696C94.9064 20.3423 94.4838 22.2955 93.6387 23.929C92.8006 25.5625 91.5897 26.8161 90.0059 27.6896C88.4292 28.5632 86.5328 29 84.3169 29ZM80.8759 25.5803H84.1252C85.6451 25.5803 86.9128 25.3033 87.9284 24.7493C88.9441 24.1882 89.7076 23.3537 90.2189 22.2457C90.7303 21.1307 90.986 19.7386 90.986 18.0696C90.986 16.4006 90.7303 15.0156 90.2189 13.9148C89.7076 12.8068 88.9512 11.9794 87.9498 11.4325C86.9554 10.8786 85.7196 10.6016 84.2424 10.6016H80.8759V25.5803Z" fill="#DFE0E1"/>
<path d="M2.15199 29H1.15199V30H2.15199V29ZM2.15199 7.18182V6.18182H1.15199V7.18182H2.15199ZM15.277 8.49219L14.7873 9.36409L14.792 9.36672L15.277 8.49219ZM18.8778 12.2315L17.9889 12.6896V12.6896L18.8778 12.2315ZM18.8672 23.929L17.979 23.4694L17.9775 23.4725L18.8672 23.929ZM15.2344 27.6896L14.7514 26.814L14.7497 26.8149L15.2344 27.6896ZM6.1044 25.5803H5.1044V26.5803H6.1044V25.5803ZM13.157 24.7493L13.6358 25.6272L13.6405 25.6246L13.157 24.7493ZM15.4474 22.2457L16.3554 22.6648L16.3564 22.6626L15.4474 22.2457ZM15.4474 13.9148L14.5395 14.3338L14.5405 14.3361L15.4474 13.9148ZM13.1783 11.4325L12.6915 12.3061L12.699 12.3102L13.1783 11.4325ZM6.1044 10.6016V9.60156H5.1044V10.6016H6.1044ZM9.54545 28H2.15199V30H9.54545V28ZM3.15199 29V7.18182H1.15199V29H3.15199ZM2.15199 8.18182H9.6946V6.18182H2.15199V8.18182ZM9.6946 8.18182C11.7258 8.18182 13.4104 8.59075 14.7873 9.36408L15.7667 7.62029C14.0328 6.64647 11.9957 6.18182 9.6946 6.18182V8.18182ZM14.792 9.36672C16.1773 10.1349 17.2391 11.2344 17.9889 12.6896L19.7668 11.7735C18.8405 9.97585 17.5017 8.58241 15.762 7.61766L14.792 9.36672ZM17.9889 12.6896C18.7386 14.1446 19.1349 15.926 19.1349 18.0696H21.1349C21.1349 15.6819 20.6932 13.5714 19.7668 11.7735L17.9889 12.6896ZM19.1349 18.0696C19.1349 20.2195 18.7354 22.0076 17.979 23.4694L19.7554 24.3885C20.6893 22.5833 21.1349 20.4652 21.1349 18.0696H19.1349ZM17.9775 23.4725C17.2288 24.9318 16.1582 26.0381 14.7514 26.814L15.7173 28.5653C17.4782 27.594 18.8295 26.1932 19.7569 24.3855L17.9775 23.4725ZM14.7497 26.8149C13.3517 27.5895 11.6303 28 9.54545 28V30C11.8924 30 13.9636 29.5369 15.719 28.5643L14.7497 26.8149ZM6.1044 26.5803H9.35369V24.5803H6.1044V26.5803ZM9.35369 26.5803C10.9901 26.5803 12.4344 26.2825 13.6358 25.6272L12.6781 23.8714C11.8483 24.324 10.757 24.5803 9.35369 24.5803V26.5803ZM13.6405 25.6246C14.8526 24.955 15.7597 23.9555 16.3554 22.6648L14.5395 21.8267C14.1125 22.7519 13.4926 23.4214 12.6734 23.874L13.6405 25.6246ZM16.3564 22.6626C16.9453 21.3786 17.2145 19.8335 17.2145 18.0696H15.2145C15.2145 19.6437 14.9723 20.8828 14.5385 21.8289L16.3564 22.6626ZM17.2145 18.0696C17.2145 16.3064 16.9455 14.7661 16.3544 13.4935L14.5405 14.3361C14.9721 15.2652 15.2145 16.4947 15.2145 18.0696H17.2145ZM16.3554 13.4957C15.7607 12.2072 14.8608 11.212 13.6576 10.5549L12.699 12.3102C13.4985 12.7468 14.1114 13.4064 14.5395 14.3338L16.3554 13.4957ZM13.665 10.559C12.484 9.90097 11.0691 9.60156 9.47088 9.60156V11.6016C10.8272 11.6016 11.8839 11.8561 12.6916 12.3061L13.665 10.559ZM9.47088 9.60156H6.1044V11.6016H9.47088V9.60156ZM5.1044 10.6016V25.5803H7.1044V10.6016H5.1044ZM56.2163 29V30H56.9357L57.1644 29.318L56.2163 29ZM51.9976 29L51.0543 28.6679L50.5854 30H51.9976V29ZM59.6787 7.18182V6.18182H58.9706L58.7354 6.84974L59.6787 7.18182ZM64.558 7.18182L65.5011 6.84933L65.2657 6.18182H64.558V7.18182ZM72.2497 29V30H73.6626L73.1928 28.6675L72.2497 29ZM68.031 29L67.083 29.3185L67.312 30H68.031V29ZM62.2036 11.6562L63.1515 11.3378L62.9225 10.6562H62.2036V11.6562ZM62.0331 11.6562V10.6562H61.3137L61.085 11.3383L62.0331 11.6562ZM56.3548 20.4453V19.4453H55.3548V20.4453H56.3548ZM67.8605 20.4453H68.8605V19.4453H67.8605V20.4453ZM67.8605 23.62V24.62H68.8605V23.62H67.8605ZM56.3548 23.62H55.3548V24.62H56.3548V23.62ZM56.2163 28H51.9976V30H56.2163V28ZM52.9408 29.3321L60.6219 7.51389L58.7354 6.84974L51.0543 28.6679L52.9408 29.3321ZM59.6787 8.18182H64.558V6.18182H59.6787V8.18182ZM63.6148 7.5143L71.3066 29.3325L73.1928 28.6675L65.5011 6.84933L63.6148 7.5143ZM72.2497 28H68.031V30H72.2497V28ZM68.9789 28.6815L63.1515 11.3378L61.2556 11.9747L67.083 29.3185L68.9789 28.6815ZM62.2036 10.6562H62.0331V12.6562H62.2036V10.6562ZM61.085 11.3383L55.2682 28.682L57.1644 29.318L62.9812 11.9742L61.085 11.3383ZM56.3548 21.4453H67.8605V19.4453H56.3548V21.4453ZM66.8605 20.4453V23.62H68.8605V20.4453H66.8605ZM67.8605 22.62H56.3548V24.62H67.8605V22.62ZM57.3548 23.62V20.4453H55.3548V23.62H57.3548ZM76.9235 29H75.9235V30H76.9235V29ZM76.9235 7.18182V6.18182H75.9235V7.18182H76.9235ZM90.0485 8.49219L89.5588 9.36409L89.5635 9.36672L90.0485 8.49219ZM93.6493 12.2315L92.7604 12.6896V12.6896L93.6493 12.2315ZM93.6387 23.929L92.7505 23.4694L92.7489 23.4725L93.6387 23.929ZM90.0059 27.6896L89.5229 26.814L89.5212 26.8149L90.0059 27.6896ZM80.8759 25.5803H79.8759V26.5803H80.8759V25.5803ZM87.9284 24.7493L88.4073 25.6272L88.412 25.6246L87.9284 24.7493ZM90.2189 22.2457L91.1269 22.6648L91.1279 22.6626L90.2189 22.2457ZM90.2189 13.9148L89.311 14.3338L89.312 14.3361L90.2189 13.9148ZM87.9498 11.4325L87.463 12.3061L87.4705 12.3102L87.9498 11.4325ZM80.8759 10.6016V9.60156H79.8759V10.6016H80.8759ZM84.3169 28H76.9235V30H84.3169V28ZM77.9235 29V7.18182H75.9235V29H77.9235ZM76.9235 8.18182H84.4661V6.18182H76.9235V8.18182ZM84.4661 8.18182C86.4973 8.18182 88.1819 8.59075 89.5588 9.36408L90.5382 7.62029C88.8043 6.64647 86.7672 6.18182 84.4661 6.18182V8.18182ZM89.5635 9.36672C90.9488 10.1349 92.0106 11.2344 92.7604 12.6896L94.5383 11.7735C93.612 9.97585 92.2732 8.58241 90.5334 7.61766L89.5635 9.36672ZM92.7604 12.6896C93.5101 14.1446 93.9064 15.926 93.9064 18.0696H95.9064C95.9064 15.6819 95.4647 13.5714 94.5383 11.7735L92.7604 12.6896ZM93.9064 18.0696C93.9064 20.2195 93.5069 22.0076 92.7505 23.4694L94.5268 24.3885C95.4608 22.5833 95.9064 20.4652 95.9064 18.0696H93.9064ZM92.7489 23.4725C92.0003 24.9318 90.9296 26.0381 89.5229 26.814L90.4888 28.5653C92.2497 27.594 93.6009 26.1932 94.5284 24.3855L92.7489 23.4725ZM89.5212 26.8149C88.1232 27.5895 86.4018 28 84.3169 28V30C86.6639 30 88.7351 29.5369 90.4905 28.5643L89.5212 26.8149ZM80.8759 26.5803H84.1252V24.5803H80.8759V26.5803ZM84.1252 26.5803C85.7616 26.5803 87.2059 26.2825 88.4073 25.6272L87.4496 23.8714C86.6198 24.324 85.5285 24.5803 84.1252 24.5803V26.5803ZM88.412 25.6246C89.6241 24.955 90.5312 23.9555 91.1269 22.6648L89.311 21.8267C88.8839 22.7519 88.264 23.4214 87.4449 23.874L88.412 25.6246ZM91.1279 22.6626C91.7168 21.3786 91.986 19.8335 91.986 18.0696H89.986C89.986 19.6437 89.7438 20.8828 89.31 21.8289L91.1279 22.6626ZM91.986 18.0696C91.986 16.3064 91.717 14.7661 91.1259 13.4935L89.312 14.3361C89.7436 15.2652 89.986 16.4947 89.986 18.0696H91.986ZM91.1269 13.4957C90.5322 12.2072 89.6323 11.212 88.429 10.5549L87.4705 12.3102C88.27 12.7468 88.8829 13.4064 89.311 14.3338L91.1269 13.4957ZM88.4365 10.559C87.2554 9.90097 85.8406 9.60156 84.2424 9.60156V11.6016C85.5986 11.6016 86.6554 11.8561 87.4631 12.3061L88.4365 10.559ZM84.2424 9.60156H80.8759V11.6016H84.2424V9.60156ZM79.8759 10.6016V25.5803H81.8759V10.6016H79.8759Z" fill="#1C1D21"/>
<path d="M104.327 7.18182V29H101.141V7.18182H104.327ZM108.612 29V12.6364H111.797V29H108.612ZM110.221 10.1115C109.667 10.1115 109.191 9.92685 108.793 9.55753C108.403 9.18111 108.207 8.73366 108.207 8.2152C108.207 7.68963 108.403 7.24219 108.793 6.87287C109.191 6.49645 109.667 6.30824 110.221 6.30824C110.775 6.30824 111.247 6.49645 111.638 6.87287C112.035 7.24219 112.234 7.68963 112.234 8.2152C112.234 8.73366 112.035 9.18111 111.638 9.55753C111.247 9.92685 110.775 10.1115 110.221 10.1115ZM119.268 19.2841V29H116.083V12.6364H119.14V15.2997H119.343C119.719 14.4332 120.309 13.7372 121.111 13.2116C121.921 12.6861 122.94 12.4233 124.169 12.4233C125.284 12.4233 126.26 12.6577 127.098 13.1264C127.936 13.5881 128.586 14.277 129.048 15.1932C129.51 16.1094 129.74 17.2422 129.74 18.5916V29H126.555V18.9751C126.555 17.7891 126.246 16.8622 125.628 16.1946C125.01 15.5199 124.162 15.1825 123.082 15.1825C122.343 15.1825 121.686 15.3423 121.111 15.6619C120.543 15.9815 120.092 16.4503 119.758 17.0682C119.431 17.679 119.268 18.4176 119.268 19.2841ZM141.065 29.3303C139.453 29.3303 138.064 28.9858 136.9 28.2969C135.742 27.6009 134.847 26.6243 134.215 25.3672C133.59 24.103 133.277 22.6222 133.277 20.9247C133.277 19.2486 133.59 17.7713 134.215 16.4929C134.847 15.2145 135.728 14.2166 136.857 13.4993C137.993 12.782 139.321 12.4233 140.841 12.4233C141.765 12.4233 142.659 12.576 143.526 12.8814C144.392 13.1868 145.17 13.6662 145.859 14.3196C146.548 14.973 147.091 15.8217 147.489 16.8658C147.887 17.9027 148.086 19.1634 148.086 20.6477V21.777H135.078V19.3906H144.964C144.964 18.5526 144.794 17.8104 144.453 17.1641C144.112 16.5107 143.632 15.9957 143.015 15.6193C142.404 15.2429 141.686 15.0547 140.863 15.0547C139.968 15.0547 139.186 15.2749 138.519 15.7152C137.858 16.1484 137.347 16.7166 136.985 17.4197C136.63 18.1158 136.452 18.8722 136.452 19.6889V21.5533C136.452 22.647 136.644 23.5774 137.027 24.3445C137.418 25.1115 137.961 25.6974 138.657 26.1023C139.353 26.5 140.167 26.6989 141.097 26.6989C141.701 26.6989 142.251 26.6136 142.748 26.4432C143.245 26.2656 143.675 26.0028 144.037 25.6548C144.4 25.3068 144.676 24.8771 144.868 24.3658L147.883 24.9091C147.642 25.7969 147.208 26.5746 146.583 27.2422C145.966 27.9027 145.188 28.4176 144.25 28.7869C143.32 29.1491 142.258 29.3303 141.065 29.3303ZM151.62 29V12.6364H154.699V15.2358H154.869C155.167 14.3551 155.693 13.6626 156.446 13.1584C157.206 12.647 158.065 12.3913 159.024 12.3913C159.223 12.3913 159.457 12.3984 159.727 12.4126C160.004 12.4268 160.221 12.4446 160.377 12.4659V15.5128C160.249 15.4773 160.022 15.4382 159.695 15.3956C159.368 15.3459 159.042 15.321 158.715 15.321C157.962 15.321 157.291 15.4808 156.702 15.8004C156.119 16.1129 155.657 16.5497 155.317 17.1108C154.976 17.6648 154.805 18.2969 154.805 19.0071V29H151.62Z" fill="#DFE0E1"/>
<path d="M104.327 7.18182H105.327V6.18182H104.327V7.18182ZM104.327 29V30H105.327V29H104.327ZM101.141 29H100.141V30H101.141V29ZM101.141 7.18182V6.18182H100.141V7.18182H101.141ZM103.327 7.18182V29H105.327V7.18182H103.327ZM104.327 28H101.141V30H104.327V28ZM102.141 29V7.18182H100.141V29H102.141ZM101.141 8.18182H104.327V6.18182H101.141V8.18182ZM108.612 29H107.612V30H108.612V29ZM108.612 12.6364V11.6364H107.612V12.6364H108.612ZM111.797 12.6364H112.797V11.6364H111.797V12.6364ZM111.797 29V30H112.797V29H111.797ZM108.793 9.55753L108.099 10.2776L108.106 10.284L108.113 10.2903L108.793 9.55753ZM108.793 6.87287L109.48 7.59951L109.481 7.59916L108.793 6.87287ZM111.638 6.87287L110.944 7.59295L110.95 7.59937L110.957 7.60566L111.638 6.87287ZM111.638 9.55753L112.325 10.2842L112.325 10.2838L111.638 9.55753ZM109.612 29V12.6364H107.612V29H109.612ZM108.612 13.6364H111.797V11.6364H108.612V13.6364ZM110.797 12.6364V29H112.797V12.6364H110.797ZM111.797 28H108.612V30H111.797V28ZM110.221 9.11151C109.913 9.11151 109.682 9.0184 109.474 8.82473L108.113 10.2903C108.7 10.8353 109.42 11.1115 110.221 11.1115V9.11151ZM109.487 8.83745C109.282 8.63974 109.207 8.44825 109.207 8.2152H107.207C107.207 9.01908 107.523 9.72248 108.099 10.2776L109.487 8.83745ZM109.207 8.2152C109.207 7.97159 109.284 7.78482 109.48 7.59951L108.106 6.14622C107.521 6.69955 107.207 7.40767 107.207 8.2152H109.207ZM109.481 7.59916C109.69 7.40077 109.919 7.30824 110.221 7.30824V5.30824C109.414 5.30824 108.692 5.59213 108.106 6.14657L109.481 7.59916ZM110.221 7.30824C110.522 7.30824 110.744 7.40031 110.944 7.59295L112.332 6.15279C111.75 5.59259 111.027 5.30824 110.221 5.30824V7.30824ZM110.957 7.60566C111.159 7.79277 111.234 7.97782 111.234 8.2152H113.234C113.234 7.40144 112.912 6.69161 112.318 6.14008L110.957 7.60566ZM111.234 8.2152C111.234 8.44205 111.161 8.63178 110.95 8.83123L112.325 10.2838C112.91 9.73043 113.234 9.02528 113.234 8.2152H111.234ZM110.951 8.83088C110.752 9.01881 110.528 9.11151 110.221 9.11151V11.1115C111.022 11.1115 111.742 10.8349 112.325 10.2842L110.951 8.83088ZM119.268 29V30H120.268V29H119.268ZM116.083 29H115.083V30H116.083V29ZM116.083 12.6364V11.6364H115.083V12.6364H116.083ZM119.14 12.6364H120.14V11.6364H119.14V12.6364ZM119.14 15.2997H118.14V16.2997H119.14V15.2997ZM119.343 15.2997V16.2997H119.999L120.26 15.6982L119.343 15.2997ZM121.111 13.2116L120.567 12.3729L120.563 12.3751L121.111 13.2116ZM127.098 13.1264L126.61 13.9992L126.616 14.0023L127.098 13.1264ZM129.048 15.1932L128.155 15.6432V15.6432L129.048 15.1932ZM129.74 29V30H130.74V29H129.74ZM126.555 29H125.555V30H126.555V29ZM125.628 16.1946L124.891 16.87L124.894 16.8739L125.628 16.1946ZM121.111 15.6619L120.626 14.7878L120.621 14.7904L121.111 15.6619ZM119.758 17.0682L118.878 16.5929L118.876 16.5965L119.758 17.0682ZM118.268 19.2841V29H120.268V19.2841H118.268ZM119.268 28H116.083V30H119.268V28ZM117.083 29V12.6364H115.083V29H117.083ZM116.083 13.6364H119.14V11.6364H116.083V13.6364ZM118.14 12.6364V15.2997H120.14V12.6364H118.14ZM119.14 16.2997H119.343V14.2997H119.14V16.2997ZM120.26 15.6982C120.557 15.0136 121.017 14.4687 121.659 14.0482L120.563 12.3751C119.6 13.0058 118.881 13.8529 118.425 14.9013L120.26 15.6982ZM121.656 14.0504C122.264 13.6554 123.081 13.4233 124.169 13.4233V11.4233C122.799 11.4233 121.577 11.7168 120.567 12.3729L121.656 14.0504ZM124.169 13.4233C125.141 13.4233 125.944 13.6265 126.61 13.9992L127.587 12.2537C126.577 11.6889 125.427 11.4233 124.169 11.4233V13.4233ZM126.616 14.0023C127.264 14.3595 127.777 14.8934 128.155 15.6432L129.941 14.7432C129.395 13.6606 128.609 12.8166 127.581 12.2505L126.616 14.0023ZM128.155 15.6432C128.528 16.3829 128.74 17.3511 128.74 18.5916H130.74C130.74 17.1333 130.492 15.8359 129.941 14.7432L128.155 15.6432ZM128.74 18.5916V29H130.74V18.5916H128.74ZM129.74 28H126.555V30H129.74V28ZM127.555 29V18.9751H125.555V29H127.555ZM127.555 18.9751C127.555 17.616 127.198 16.4184 126.362 15.5153L124.894 16.8739C125.294 17.306 125.555 17.9622 125.555 18.9751H127.555ZM126.366 15.5192C125.524 14.6003 124.387 14.1825 123.082 14.1825V16.1825C123.936 16.1825 124.497 16.4395 124.891 16.87L126.366 15.5192ZM123.082 14.1825C122.195 14.1825 121.367 14.3759 120.626 14.7878L121.597 16.5361C122.006 16.3087 122.492 16.1825 123.082 16.1825V14.1825ZM120.621 14.7904C119.875 15.2098 119.295 15.8221 118.878 16.5929L120.638 17.5435C120.889 17.0784 121.211 16.7533 121.601 16.5335L120.621 14.7904ZM118.876 16.5965C118.455 17.3844 118.268 18.2936 118.268 19.2841H120.268C120.268 18.5416 120.408 17.9736 120.64 17.5398L118.876 16.5965ZM136.9 28.2969L136.384 29.1539L136.39 29.1576L136.9 28.2969ZM134.215 25.3672L133.318 25.8104L133.321 25.8164L134.215 25.3672ZM134.215 16.4929L133.318 16.0497L133.316 16.0537L134.215 16.4929ZM136.857 13.4993L136.323 12.6537L136.321 12.6552L136.857 13.4993ZM143.526 12.8814L143.858 11.9383L143.526 12.8814ZM145.859 14.3196L145.171 15.0452V15.0452L145.859 14.3196ZM147.489 16.8658L146.555 17.2218L146.555 17.2239L147.489 16.8658ZM148.086 21.777V22.777H149.086V21.777H148.086ZM135.078 21.777H134.078V22.777H135.078V21.777ZM135.078 19.3906V18.3906H134.078V19.3906H135.078ZM144.964 19.3906V20.3906H145.964V19.3906H144.964ZM144.453 17.1641L143.566 17.6266L143.568 17.6306L144.453 17.1641ZM143.015 15.6193L142.49 16.4706L142.494 16.4733L143.015 15.6193ZM138.519 15.7152L139.067 16.5514L139.069 16.55L138.519 15.7152ZM136.985 17.4197L136.096 16.9618L136.094 16.9653L136.985 17.4197ZM137.027 24.3445L136.133 24.7917L136.136 24.7983L137.027 24.3445ZM138.657 26.1023L138.155 26.9667L138.161 26.9705L138.657 26.1023ZM142.748 26.4432L143.073 27.3892L143.085 27.3849L142.748 26.4432ZM144.037 25.6548L143.344 24.9337L143.344 24.9337L144.037 25.6548ZM144.868 24.3658L145.046 23.3816L144.225 23.2337L143.932 24.0146L144.868 24.3658ZM147.883 24.9091L148.848 25.1716L149.135 24.1185L148.061 23.9249L147.883 24.9091ZM146.583 27.2422L145.853 26.5588L145.853 26.559L146.583 27.2422ZM144.25 28.7869L144.613 29.7188L144.617 29.7173L144.25 28.7869ZM141.065 28.3303C139.597 28.3303 138.392 28.0178 137.409 27.4362L136.39 29.1576C137.737 29.9538 139.308 30.3303 141.065 30.3303V28.3303ZM137.415 27.4398C136.426 26.8454 135.659 26.0135 135.108 24.918L133.321 25.8164C134.035 27.2351 135.058 28.3563 136.384 29.1539L137.415 27.4398ZM135.111 24.924C134.567 23.8229 134.277 22.4994 134.277 20.9247H132.277C132.277 22.745 132.613 24.3831 133.318 25.8104L135.111 24.924ZM134.277 20.9247C134.277 19.3739 134.566 18.0515 135.113 16.9321L133.316 16.0537C132.614 17.4911 132.277 19.1233 132.277 20.9247H134.277ZM135.111 16.9361C135.668 15.8105 136.429 14.956 137.393 14.3434L136.321 12.6552C135.027 13.4772 134.026 14.6185 133.318 16.0497L135.111 16.9361ZM137.391 14.3449C138.347 13.7412 139.485 13.4233 140.841 13.4233V11.4233C139.158 11.4233 137.639 11.8227 136.323 12.6537L137.391 14.3449ZM140.841 13.4233C141.652 13.4233 142.434 13.557 143.194 13.8245L143.858 11.9383C142.885 11.595 141.877 11.4233 140.841 11.4233V13.4233ZM143.194 13.8245C143.923 14.0816 144.58 14.4851 145.171 15.0452L146.547 13.594C145.76 12.8472 144.862 12.292 143.858 11.9383L143.194 13.8245ZM145.171 15.0452C145.733 15.5787 146.201 16.2932 146.555 17.2218L148.423 16.5098C147.982 15.3502 147.362 14.3673 146.547 13.594L145.171 15.0452ZM146.555 17.2239C146.897 18.1152 147.086 19.247 147.086 20.6477H149.086C149.086 19.0797 148.876 17.6902 148.423 16.5076L146.555 17.2239ZM147.086 20.6477V21.777H149.086V20.6477H147.086ZM148.086 20.777H135.078V22.777H148.086V20.777ZM136.078 21.777V19.3906H134.078V21.777H136.078ZM135.078 20.3906H144.964V18.3906H135.078V20.3906ZM145.964 19.3906C145.964 18.414 145.765 17.5075 145.337 16.6975L143.568 17.6306C143.823 18.1132 143.964 18.6911 143.964 19.3906H145.964ZM145.339 16.7015C144.916 15.8899 144.311 15.2383 143.535 14.7653L142.494 16.4733C142.954 16.7532 143.308 17.1314 143.566 17.6266L145.339 16.7015ZM143.539 14.768C142.748 14.2806 141.844 14.0547 140.863 14.0547V16.0547C141.529 16.0547 142.059 16.2052 142.49 16.4706L143.539 14.768ZM140.863 14.0547C139.796 14.0547 138.818 14.3198 137.968 14.8804L139.069 16.55C139.555 16.23 140.139 16.0547 140.863 16.0547V14.0547ZM137.97 14.879C137.165 15.407 136.537 16.1055 136.096 16.9618L137.874 17.8777C138.157 17.3277 138.551 16.8899 139.067 16.5514L137.97 14.879ZM136.094 16.9653C135.664 17.8085 135.452 18.7215 135.452 19.6889H137.452C137.452 19.0228 137.595 18.4231 137.875 17.8742L136.094 16.9653ZM135.452 19.6889V21.5533H137.452V19.6889H135.452ZM135.452 21.5533C135.452 22.7608 135.664 23.8529 136.133 24.7917L137.922 23.8972C137.624 23.3019 137.452 22.5333 137.452 21.5533H135.452ZM136.136 24.7983C136.608 25.7243 137.281 26.4584 138.155 26.9667L139.16 25.2379C138.642 24.9365 138.228 24.4987 137.918 23.8907L136.136 24.7983ZM138.161 26.9705C139.031 27.4676 140.021 27.6989 141.097 27.6989V25.6989C140.312 25.6989 139.676 25.5324 139.153 25.234L138.161 26.9705ZM141.097 27.6989C141.795 27.6989 142.457 27.6003 143.073 27.3891L142.424 25.4972C142.045 25.627 141.606 25.6989 141.097 25.6989V27.6989ZM143.085 27.3849C143.708 27.1623 144.261 26.8268 144.73 26.3759L143.344 24.9337C143.089 25.1789 142.783 25.3689 142.412 25.5014L143.085 27.3849ZM144.73 26.3759C145.209 25.9155 145.565 25.3558 145.805 24.7169L143.932 24.0146C143.788 24.3984 143.59 24.6981 143.344 24.9337L144.73 26.3759ZM144.691 25.3499L147.706 25.8932L148.061 23.9249L145.046 23.3816L144.691 25.3499ZM146.918 24.6466C146.719 25.378 146.366 26.011 145.853 26.5588L147.313 27.9256C148.051 27.1382 148.564 26.2157 148.848 25.1716L146.918 24.6466ZM145.853 26.559C145.348 27.0993 144.699 27.5354 143.884 27.8565L144.617 29.7173C145.677 29.2999 146.583 28.7061 147.314 27.9253L145.853 26.559ZM143.888 27.8551C143.093 28.1644 142.158 28.3303 141.065 28.3303V30.3303C142.359 30.3303 143.547 30.1339 144.613 29.7188L143.888 27.8551ZM151.62 29H150.62V30H151.62V29ZM151.62 12.6364V11.6364H150.62V12.6364H151.62ZM154.699 12.6364H155.699V11.6364H154.699V12.6364ZM154.699 15.2358H153.699V16.2358H154.699V15.2358ZM154.869 15.2358V16.2358H155.586L155.816 15.5566L154.869 15.2358ZM156.446 13.1584L157.002 13.9892L157.004 13.988L156.446 13.1584ZM159.727 12.4126L159.675 13.4113L159.676 13.4113L159.727 12.4126ZM160.377 12.4659H161.377V11.593L160.512 11.4751L160.377 12.4659ZM160.377 15.5128L160.109 16.4763L161.377 16.8284V15.5128H160.377ZM159.695 15.3956L159.545 16.3842L159.555 16.3858L159.566 16.3872L159.695 15.3956ZM156.702 15.8004L157.174 16.6816L157.178 16.6795L156.702 15.8004ZM155.317 17.1108L156.168 17.6349L156.171 17.6301L155.317 17.1108ZM154.805 29V30H155.805V29H154.805ZM152.62 29V12.6364H150.62V29H152.62ZM151.62 13.6364H154.699V11.6364H151.62V13.6364ZM153.699 12.6364V15.2358H155.699V12.6364H153.699ZM154.699 16.2358H154.869V14.2358H154.699V16.2358ZM155.816 15.5566C156.046 14.8784 156.437 14.3677 157.002 13.9892L155.889 12.3275C154.949 12.9576 154.289 13.8318 153.922 14.915L155.816 15.5566ZM157.004 13.988C157.591 13.5931 158.254 13.3913 159.024 13.3913V11.3913C157.876 11.3913 156.82 11.701 155.888 12.3287L157.004 13.988ZM159.024 13.3913C159.2 13.3913 159.416 13.3977 159.675 13.4113L159.78 11.414C159.498 11.3992 159.245 11.3913 159.024 11.3913V13.3913ZM159.676 13.4113C159.942 13.425 160.127 13.441 160.242 13.4567L160.512 11.4751C160.315 11.4482 160.066 11.4287 159.778 11.414L159.676 13.4113ZM159.377 12.4659V15.5128H161.377V12.4659H159.377ZM160.645 14.5493C160.441 14.4927 160.149 14.4464 159.824 14.404L159.566 16.3872C159.894 16.43 160.057 16.4619 160.109 16.4763L160.645 14.5493ZM159.846 14.407C159.47 14.3498 159.093 14.321 158.715 14.321V16.321C158.991 16.321 159.267 16.342 159.545 16.3842L159.846 14.407ZM158.715 14.321C157.816 14.321 156.978 14.513 156.225 14.9213L157.178 16.6795C157.604 16.4486 158.108 16.321 158.715 16.321V14.321ZM156.229 14.9193C155.49 15.3156 154.896 15.8768 154.462 16.5915L156.171 17.6301C156.419 17.2226 156.748 16.9103 157.174 16.6816L156.229 14.9193ZM154.465 16.5867C154.018 17.3126 153.805 18.1294 153.805 19.0071H155.805C155.805 18.4643 155.933 18.0169 156.168 17.6349L154.465 16.5867ZM153.805 19.0071V29H155.805V19.0071H153.805ZM154.805 28H151.62V30H154.805V28Z" fill="#1C1D21"/>
<path d="M27.5869 6.63947L32.6626 16.2906M36.2495 9.73274L24 13.1973" stroke="#E50024" stroke-width="2" stroke-linejoin="round"/>
<path d="M42.4748 8.00205L47.4693 17.4989M50.9989 11.0459L38.9452 14.4551" stroke="#E50024" stroke-width="2" stroke-linejoin="round"/>
<path d="M27.2755 18.8175C27.5563 24.2582 31.4924 33.4413 44.9906 26.6474" stroke="#E50024" stroke-width="2" stroke-linejoin="round"/>
</svg>
