<svg width="30" height="30" viewBox="0 0 30 30" fill="none" xmlns="http://www.w3.org/2000/svg">
<path d="M4.6 26C3.885 26 3.2727 25.7427 2.7631 25.2282C2.2535 24.7137 1.99914 24.096 2 23.375V7.625C2 6.90313 2.2548 6.28494 2.7644 5.77044C3.274 5.25594 3.88587 4.99913 4.6 5H25.4C26.115 5 26.7273 5.25725 27.2369 5.77175C27.7465 6.28625 28.0009 6.904 28 7.625V23.375C28 24.0969 27.7452 24.7151 27.2356 25.2296C26.726 25.7441 26.1141 26.0009 25.4 26H4.6ZM15 16.5828C15.1083 16.5828 15.2223 16.5662 15.3419 16.5329C15.4615 16.4997 15.575 16.4507 15.6825 16.3859L24.88 10.5781C25.0533 10.4688 25.1833 10.3318 25.27 10.1673C25.3567 10.0028 25.4 9.82256 25.4 9.62656C25.4 9.18906 25.2158 8.86094 24.8475 8.64219C24.4792 8.42344 24.1 8.43438 23.71 8.675L15 14.1875L6.29 8.675C5.9 8.43438 5.52083 8.42913 5.1525 8.65925C4.78417 8.88938 4.6 9.21181 4.6 9.62656C4.6 9.84531 4.64333 10.0369 4.73 10.2014C4.81667 10.3659 4.94667 10.4915 5.12 10.5781L14.3175 16.3859C14.4258 16.4516 14.5398 16.501 14.6594 16.5342C14.779 16.5675 14.8925 16.5837 15 16.5828Z" fill="#E50024"/>
</svg>
