<svg width="31" height="30" viewBox="0 0 31 30" fill="none" xmlns="http://www.w3.org/2000/svg">
<path d="M4.85 26C4.135 26 3.5227 25.7427 3.0131 25.2282C2.5035 24.7137 2.24914 24.096 2.25 23.375V7.625C2.25 6.90313 2.5048 6.28494 3.0144 5.77044C3.524 5.25594 4.13587 4.99913 4.85 5H25.65C26.365 5 26.9773 5.25725 27.4869 5.77175C27.9965 6.28625 28.2509 6.904 28.25 7.625V23.375C28.25 24.0969 27.9952 24.7151 27.4856 25.2296C26.976 25.7441 26.3641 26.0009 25.65 26H4.85ZM15.25 16.5828C15.3583 16.5828 15.4723 16.5662 15.5919 16.5329C15.7115 16.4997 15.825 16.4507 15.9325 16.3859L25.13 10.5781C25.3033 10.4688 25.4333 10.3318 25.52 10.1673C25.6067 10.0028 25.65 9.82256 25.65 9.62656C25.65 9.18906 25.4658 8.86094 25.0975 8.64219C24.7292 8.42344 24.35 8.43438 23.96 8.675L15.25 14.1875L6.54 8.675C6.15 8.43438 5.77083 8.42913 5.4025 8.65925C5.03417 8.88938 4.85 9.21181 4.85 9.62656C4.85 9.84531 4.89333 10.0369 4.98 10.2014C5.06667 10.3659 5.19667 10.4915 5.37 10.5781L14.5675 16.3859C14.6758 16.4516 14.7898 16.501 14.9094 16.5342C15.029 16.5675 15.1425 16.5837 15.25 16.5828Z" fill="#797A7D"/>
</svg>
