<svg width="22" height="23" viewBox="0 0 22 23" fill="none" xmlns="http://www.w3.org/2000/svg">
<path d="M6.21498 4.86627C6.33642 4.73594 6.40253 4.56356 6.39939 4.38545C6.39625 4.20735 6.32409 4.03741 6.19813 3.91145C6.07217 3.78549 5.90223 3.71333 5.72412 3.71019C5.54601 3.70705 5.37364 3.77316 5.24331 3.8946L3.43748 5.70043L3.00664 5.2696C2.87632 5.14816 2.70394 5.08205 2.52583 5.08519C2.34772 5.08833 2.17779 5.16049 2.05182 5.28645C1.92586 5.41241 1.85371 5.58235 1.85057 5.76045C1.84743 5.93856 1.91354 6.11094 2.03498 6.24127L2.95164 7.15793C3.08055 7.28668 3.25529 7.359 3.43748 7.359C3.61967 7.359 3.7944 7.28668 3.92331 7.15793L6.21498 4.86627ZM19.4791 16.991H8.93748L8.84398 16.9974C8.67141 17.0212 8.5143 17.1095 8.40437 17.2447C8.29445 17.3798 8.23991 17.5516 8.25179 17.7254C8.26366 17.8992 8.34106 18.062 8.46834 18.1809C8.59562 18.2998 8.76329 18.366 8.93748 18.366H19.4791L19.5726 18.3596C19.7452 18.3359 19.9023 18.2475 20.0122 18.1124C20.1222 17.9773 20.1767 17.8054 20.1648 17.6317C20.153 17.4579 20.0756 17.2951 19.9483 17.1762C19.821 17.0572 19.6533 16.9911 19.4791 16.991ZM19.4791 11.0263H8.93748L8.84398 11.0327C8.67141 11.0564 8.5143 11.1448 8.40437 11.2799C8.29445 11.415 8.23991 11.5868 8.25179 11.7606C8.26366 11.9344 8.34106 12.0972 8.46834 12.2161C8.59562 12.335 8.76329 12.4012 8.93748 12.4013H19.4791L19.5726 12.3949C19.7452 12.3711 19.9023 12.2827 20.0122 12.1476C20.1222 12.0125 20.1767 11.8407 20.1648 11.6669C20.153 11.4931 20.0756 11.3303 19.9483 11.2114C19.821 11.0925 19.6533 11.0263 19.4791 11.0263ZM19.4791 5.06793H8.93748L8.84398 5.07435C8.67141 5.09809 8.5143 5.18645 8.40437 5.32158C8.29445 5.4567 8.23991 5.62851 8.25179 5.80229C8.26366 5.97608 8.34106 6.13888 8.46834 6.25779C8.59562 6.37671 8.76329 6.44288 8.93748 6.44293H19.4791L19.5726 6.43652C19.7452 6.41277 19.9023 6.32441 20.0122 6.18929C20.1222 6.05417 20.1767 5.88236 20.1648 5.70857C20.153 5.53479 20.0756 5.37199 19.9483 5.25308C19.821 5.13416 19.6533 5.06799 19.4791 5.06793ZM6.21498 16.7829C6.28252 16.72 6.3367 16.6441 6.37428 16.5598C6.41185 16.4754 6.43206 16.3844 6.43369 16.2921C6.43532 16.1998 6.41833 16.1081 6.38376 16.0225C6.34918 15.9369 6.29771 15.8591 6.23243 15.7938C6.16715 15.7285 6.08938 15.6771 6.00378 15.6425C5.91817 15.6079 5.82648 15.5909 5.73417 15.5926C5.64185 15.5942 5.55082 15.6144 5.46648 15.652C5.38215 15.6895 5.30625 15.7437 5.24331 15.8113L3.43748 17.6171L3.00664 17.1863C2.87632 17.0648 2.70394 16.9987 2.52583 17.0019C2.34772 17.005 2.17779 17.0772 2.05182 17.2031C1.92586 17.3291 1.85371 17.499 1.85057 17.6771C1.84743 17.8552 1.91354 18.0276 2.03498 18.1579L2.95164 19.0746C3.08055 19.2033 3.25529 19.2757 3.43748 19.2757C3.61967 19.2757 3.7944 19.2033 3.92331 19.0746L6.21498 16.7829ZM6.21498 9.85293C6.34372 9.98184 6.41604 10.1566 6.41604 10.3388C6.41604 10.521 6.34372 10.6957 6.21498 10.8246L3.92331 13.1163C3.7944 13.245 3.61967 13.3173 3.43748 13.3173C3.25529 13.3173 3.08055 13.245 2.95164 13.1163L2.03498 12.1996C1.96743 12.1367 1.91325 12.0608 1.87568 11.9764C1.8381 11.8921 1.8179 11.8011 1.81627 11.7087C1.81464 11.6164 1.83162 11.5247 1.8662 11.4391C1.90078 11.3535 1.95224 11.2758 2.01753 11.2105C2.08281 11.1452 2.16057 11.0937 2.24618 11.0592C2.33179 11.0246 2.42348 11.0076 2.51579 11.0092C2.6081 11.0109 2.69914 11.0311 2.78347 11.0686C2.8678 11.1062 2.9437 11.1604 3.00664 11.2279L3.43748 11.6588L5.24331 9.85293C5.37222 9.72419 5.54696 9.65187 5.72914 9.65187C5.91133 9.65187 6.08607 9.72419 6.21498 9.85293Z" fill="#FF0028"/>
</svg>
