<svg width="21" height="22" viewBox="0 0 21 22" fill="none" xmlns="http://www.w3.org/2000/svg">
<g clip-path="url(#clip0_359_291)">
<path d="M20.808 20.3729L14.4315 13.9574C15.62 12.534 16.3363 10.7027 16.3363 8.70312C16.3363 4.1727 12.6636 0.5 8.13318 0.5C3.60276 0.5 -0.0699463 4.1727 -0.0699463 8.70312C-0.0699463 13.2335 3.60276 16.9062 8.13318 16.9062C10.1915 16.9062 12.0717 16.1463 13.5121 14.8935L19.8797 21.3012C20.136 21.5574 20.5517 21.5574 20.808 21.3012C21.0639 21.0449 21.0639 20.6295 20.808 20.3729H20.808ZM8.13318 15.6046C4.32168 15.6046 1.23173 12.5146 1.23173 8.70312C1.23173 4.89162 4.32168 1.80167 8.13318 1.80167C11.9447 1.80167 15.0346 4.89162 15.0346 8.70312C15.0346 12.5146 11.9447 15.6046 8.13318 15.6046Z" fill="#FF0028"/>
</g>
<defs>
<clipPath id="clip0_359_291">
<rect width="21" height="21" fill="white" transform="translate(0 0.5)"/>
</clipPath>
</defs>
</svg>
