<svg width="30" height="30" viewBox="0 0 30 30" fill="none" xmlns="http://www.w3.org/2000/svg">
<g clip-path="url(#clip0_253_7942)">
<path fill-rule="evenodd" clip-rule="evenodd" d="M29.3125 7.185C29.52 6.5025 29.3125 6 28.3188 6H25.0375C24.2025 6 23.8175 6.43375 23.6087 6.9125C23.6087 6.9125 21.94 10.9075 19.5763 13.5025C18.8113 14.255 18.4638 14.4938 18.0463 14.4938C17.8375 14.4938 17.5238 14.255 17.5238 13.5713V7.185C17.5238 6.365 17.2938 6 16.5988 6H11.4388C10.9175 6 10.6037 6.38 10.6037 6.74125C10.6037 7.5175 11.7863 7.6975 11.9075 9.8825V14.63C11.9075 15.6713 11.7162 15.86 11.2987 15.86C10.1862 15.86 7.48 11.8462 5.87375 7.25375C5.5625 6.36 5.2475 6 4.40875 6H1.125C0.1875 6 0 6.43375 0 6.9125C0 7.765 1.1125 12 5.18125 17.6013C7.89375 21.4263 11.7125 23.5 15.1912 23.5C17.2775 23.5 17.535 23.04 17.535 22.2462V19.355C17.535 18.4338 17.7325 18.25 18.3938 18.25C18.8813 18.25 19.715 18.49 21.6625 20.3337C23.8875 22.52 24.2538 23.5 25.5063 23.5H28.7875C29.725 23.5 30.195 23.04 29.925 22.13C29.6275 21.225 28.565 19.9112 27.1563 18.3525C26.3913 17.465 25.2438 16.5088 24.895 16.03C24.4088 15.4163 24.5475 15.1425 24.895 14.5962C24.895 14.5962 28.895 9.06375 29.3112 7.185H29.3125Z" fill="#797A7D"/>
</g>
<defs>
<clipPath id="clip0_253_7942">
<rect width="30" height="30" fill="white"/>
</clipPath>
</defs>
</svg>
